<svg width="32" height="32" viewBox="0 0 32 32" fill="none" xmlns="http://www.w3.org/2000/svg">
  <!-- Orange grid pattern (favicon size) -->
  <g>
    <!-- Top row of squares -->
    <rect x="2" y="4" width="3" height="3" fill="#E68C10" rx="0.3"/>
    <rect x="6" y="4" width="3" height="3" fill="#E68C10" rx="0.3"/>
    <rect x="10" y="4" width="3" height="3" fill="#E68C10" rx="0.3"/>
    
    <!-- Second row -->
    <rect x="2" y="8" width="3" height="3" fill="#E68C10" rx="0.3"/>
    <rect x="6" y="8" width="3" height="3" fill="#E68C10" rx="0.3"/>
    <rect x="10" y="8" width="3" height="3" fill="#E68C10" rx="0.3"/>
    
    <!-- Third row -->
    <rect x="2" y="12" width="3" height="3" fill="#E68C10" rx="0.3"/>
    <rect x="6" y="12" width="3" height="3" fill="#E68C10" rx="0.3"/>
    <rect x="10" y="12" width="3" height="3" fill="#E68C10" rx="0.3"/>
    
    <!-- Fourth row -->
    <rect x="2" y="16" width="3" height="3" fill="#E68C10" rx="0.3"/>
    <rect x="6" y="16" width="3" height="3" fill="#E68C10" rx="0.3"/>
    <rect x="10" y="16" width="3" height="3" fill="#E68C10" rx="0.3"/>
  </g>
  
  <!-- Vertical bars -->
  <g>
    <rect x="15" y="4" width="2.5" height="15" fill="#E68C10" rx="1.25"/>
    <rect x="18" y="7" width="2.5" height="9" fill="#E68C10" rx="1.25"/>
    <rect x="21" y="10" width="2.5" height="6" fill="#E68C10" rx="1.25"/>
  </g>
  
  <!-- Curved arrow -->
  <path d="M25 11 Q27 9 29 11 Q31 13 33 11 L32 10.5 Q30 12 28 10.5 Q26 9 25 10.5 Z" fill="#E68C10"/>
</svg>